<?xml version="1.0" encoding="UTF-8" standalone="no"?>
<svg
   xmlns:dc="http://purl.org/dc/elements/1.1/"
   xmlns:cc="http://creativecommons.org/ns#"
   xmlns:rdf="http://www.w3.org/1999/02/22-rdf-syntax-ns#"
   xmlns:svg="http://www.w3.org/2000/svg"
   xmlns="http://www.w3.org/2000/svg"
   viewBox="0 0 1889.76 1889.76"
   height="1889.76"
   width="1889.76"
   xml:space="preserve"
   id="svg2"
   version="1.1"><metadata
     id="metadata8"><rdf:RDF><cc:Work
         rdf:about=""><dc:format>image/svg+xml</dc:format><dc:type
           rdf:resource="http://purl.org/dc/dcmitype/StillImage" /></cc:Work></rdf:RDF></metadata><defs
     id="defs6"><clipPath
       id="clipPath18"
       clipPathUnits="userSpaceOnUse"><path
         id="path16"
         d="M 0,1417.323 H 1417.323 V 0 H 0 Z" /></clipPath></defs><g
     transform="matrix(1.3333333,0,0,-1.3333333,0,1889.76)"
     id="g10"><g
       id="g12"><g
         clip-path="url(#clipPath18)"
         id="g14"><g
           transform="translate(168.8546,321.2056)"
           id="g20"><path
             id="path22"
             style="fill:#d72a05;fill-opacity:1;fill-rule:nonzero;stroke:none"
             d="m 0,0 h -26.414 v 70.534 c 0,24.447 -19.668,43.837 -43.837,43.837 -24.169,0 -43.56,-19.107 -43.838,-43.276 V 0.283 h -26.419 v 210.198 h 26.419 V 125.05 c 11.802,9.557 27.259,15.457 43.838,15.457 38.782,0 69.973,-31.191 70.251,-69.973 z" /></g><g
           transform="translate(219.1592,371.7881)"
           id="g24"><path
             id="path26"
             style="fill:#d72a05;fill-opacity:1;fill-rule:nonzero;stroke:none"
             d="M 0,0 59.017,59.01 C 53.394,61.822 46.372,63.789 38.782,63.789 14.613,63.789 -4.494,44.398 -4.494,19.39 -4.494,12.645 -2.811,5.9 0,0 m 109.316,19.39 c 0,-38.22 -31.192,-69.689 -70.534,-69.689 -38.498,0 -69.69,31.469 -69.69,69.689 0,39.343 31.192,70.535 69.69,70.535 24.73,0 45.804,-12.085 58.172,-30.07 L 18.546,-18.83 c 6.184,-3.089 12.93,-5.056 20.236,-5.056 24.73,0 44.121,19.391 44.121,43.276 z" /></g><g
           transform="translate(410.2561,435.0156)"
           id="g28"><path
             id="path30"
             style="fill:#d72a05;fill-opacity:1;fill-rule:nonzero;stroke:none"
             d="m 0,0 c -24.453,0 -43.844,-19.107 -43.844,-43.276 0,-24.446 19.391,-44.121 43.844,-44.121 24.446,0 43.553,19.675 43.553,44.121 C 43.553,-19.107 24.446,0 0,0 M 91.608,-113.249 C 76.151,-110.722 64.35,-98.637 55.922,-86.268 42.992,-103.415 22.757,-113.81 0,-113.81 c -38.782,0 -70.258,31.475 -70.258,70.534 0,38.782 31.476,69.973 70.258,69.973 39.058,0 69.973,-31.191 69.973,-69.973 v -5.9 c 0,-15.735 8.705,-30.914 21.635,-37.653 z" /></g><g
           transform="translate(580.2722,347.341)"
           id="g32"><path
             id="path34"
             style="fill:#d72a05;fill-opacity:1;fill-rule:nonzero;stroke:none"
             d="m 0,0 v -26.697 c -38.782,0 -70.535,31.476 -70.535,70.534 v 140.508 h 26.414 V 43.837 C -44.121,19.391 -24.169,0 0,0" /></g><g
           transform="translate(732.2967,392.8618)"
           id="g36"><path
             id="path38"
             style="fill:#d72a05;fill-opacity:1;fill-rule:nonzero;stroke:none"
             d="m 0,0 v -1.399 -0.285 -69.972 h -26.413 v 70.257 1.682 c -1.123,23.325 -20.236,42.155 -43.838,42.155 -23.608,0 -42.999,-18.83 -43.837,-42.155 v -71.939 h -26.419 V 68.007 h 26.419 V 53.394 c 11.801,9.556 27.258,15.457 43.837,15.457 23.325,0 44.399,-11.8 57.045,-29.509 12.929,17.709 33.726,29.226 57.05,29.226 38.775,0 70.25,-31.47 70.25,-70.252 V -71.94 H 87.681 v 70.256 c 0,24.17 -19.674,43.838 -43.837,43.838 C 20.235,42.154 0.845,23.325 0,0" /></g><g
           transform="translate(896.7025,371.7881)"
           id="g40"><path
             id="path42"
             style="fill:#d72a05;fill-opacity:1;fill-rule:nonzero;stroke:none"
             d="M 0,0 59.017,59.01 C 53.394,61.822 46.372,63.789 38.781,63.789 14.613,63.789 -4.495,44.398 -4.495,19.39 -4.495,12.645 -2.811,5.9 0,0 m 109.316,19.39 c 0,-38.22 -31.192,-69.689 -70.535,-69.689 -38.498,0 -69.689,31.469 -69.689,69.689 0,39.343 31.191,70.535 69.689,70.535 24.731,0 45.804,-12.085 58.173,-30.07 L 18.546,-18.83 c 6.184,-3.089 12.93,-5.056 20.235,-5.056 24.731,0 44.122,19.391 44.122,43.276 z" /></g><g
           transform="translate(1131.636,391.7395)"
           id="g44"><path
             id="path46"
             style="fill:#d72a05;fill-opacity:1;fill-rule:nonzero;stroke:none"
             d="m 0,0 v 0.284 c 0,24.163 -19.674,43.553 -43.837,43.553 -24.17,0 -43.844,-19.668 -43.844,-43.837 0,-24.73 19.674,-44.121 43.844,-44.121 C -19.39,-44.121 0,-24.73 0,0 M 26.413,140.791 V 0 c 0,-39.342 -31.475,-70.534 -70.25,-70.534 -38.782,0 -70.257,31.192 -70.257,70.534 0,38.498 31.475,69.973 70.257,69.973 16.856,0 32.03,-5.9 43.837,-15.457 v 86.275 z" /></g><g
           transform="translate(1293.2178,460.3073)"
           id="g48"><path
             id="path50"
             style="fill:#d72a05;fill-opacity:1;fill-rule:nonzero;stroke:none"
             d="m 0,0 v -68.845 c 0,-24.169 -19.391,-43.56 -43.56,-43.56 -24.169,0 -43.838,19.391 -43.838,43.56 V 0 h -26.135 v -68.568 c 0.845,-38.22 31.475,-70.25 69.973,-70.25 16.579,0 31.752,5.616 43.56,15.451 v -13.207 c 0,-23.738 -19.158,-43.018 -43.12,-43.254 h -254.053 v -26.436 h 255.486 v 0.096 c 37.641,1.009 68.384,32.006 68.384,69.594 L 26.697,0 Z" /></g><g
           transform="translate(1364.8126,457.0575)"
           id="g52"><path
             id="path54"
             style="fill:#d72a05;fill-opacity:1;fill-rule:nonzero;stroke:none"
             d="m 0,0 c -10.76,0 -19.514,-8.751 -19.514,-19.507 0,-10.758 8.754,-19.512 19.514,-19.512 10.755,0 19.507,8.754 19.507,19.512 C 19.507,-8.751 10.755,0 0,0 m 0,-43.674 c -13.324,0 -24.169,10.841 -24.169,24.167 0,13.324 10.845,24.163 24.169,24.163 13.324,0 24.164,-10.839 24.164,-24.163 0,-13.326 -10.84,-24.167 -24.164,-24.167" /></g><g
           transform="translate(1364.5883,437.1423)"
           id="g56"><path
             id="path58"
             style="fill:#d72a05;fill-opacity:1;fill-rule:nonzero;stroke:none"
             d="M 0,0 C 1.849,0 3.237,0.539 4.128,1.543 5.207,2.697 5.395,4.319 5.395,5.435 5.395,6.592 5.207,8.211 4.128,9.368 3.237,10.369 1.849,10.872 0,10.872 H -4.007 V 0 Z M 11.531,-13.686 H 6.474 l -7.208,9.676 h -3.273 v -9.676 H -8.481 V 14.918 H -4.704 0 c 3.777,0 5.977,-1.539 7.136,-2.851 C 8.639,10.408 9.445,8.096 9.445,5.435 9.445,2.815 8.639,0.5 7.136,-1.155 6.438,-1.928 5.359,-2.813 3.82,-3.353 Z" /></g><g
           transform="translate(606.2714,1030.8196)"
           id="g60"><path
             id="path62"
             style="fill:#d72a05;fill-opacity:1;fill-rule:nonzero;stroke:none"
             d="m 0,0 c 2.202,-0.312 4.341,0.281 6.035,1.495 1.641,1.176 2.868,2.932 3.317,5.038 5.782,27.113 0.771,56.449 -16.359,80.968 -17.129,24.519 -42.952,39.316 -70.399,43.214 -2.06,0.291 -4.058,-0.221 -5.696,-1.282 -1.808,-1.168 -3.176,-3.006 -3.656,-5.252 -5.781,-27.112 -0.771,-56.45 16.359,-80.969 C -53.27,18.694 -27.447,3.898 0,0" /></g><g
           transform="translate(511.325,976.1586)"
           id="g64"><path
             id="path66"
             style="fill:#d72a05;fill-opacity:1;fill-rule:nonzero;stroke:none"
             d="m 0,0 c 20.056,1.847 37.437,11.678 49.344,26.052 1.422,1.716 2.004,3.875 1.804,5.96 -0.197,2.067 -1.161,4.062 -2.857,5.476 C 33.958,49.444 15.073,55.935 -4.982,54.086 -25.038,52.239 -42.419,42.408 -54.327,28.035 -55.68,26.4 -56.231,24.36 -56.112,22.368 c 0.129,-2.171 1.062,-4.287 2.839,-5.77 C -38.94,4.641 -20.055,-1.848 0,0" /></g><g
           transform="translate(652.5392,1065.2861)"
           id="g68"><path
             id="path70"
             style="fill:#d72a05;fill-opacity:1;fill-rule:nonzero;stroke:none"
             d="m 0,0 c 1.895,-0.926 4.138,-1.136 6.254,-0.391 17.608,6.192 32.85,19.092 41.53,37.267 8.679,18.175 9.131,38.138 2.879,55.725 -0.634,1.783 -1.87,3.183 -3.383,4.123 -2.033,1.262 -4.582,1.67 -6.981,0.826 C 22.691,91.358 7.45,78.457 -1.23,60.283 -9.91,42.108 -10.362,22.145 -4.11,4.557 -3.375,2.491 -1.854,0.904 0,0" /></g><g
           transform="translate(668.5466,983.5294)"
           id="g72"><path
             id="path74"
             style="fill:#d72a05;fill-opacity:1;fill-rule:nonzero;stroke:none"
             d="M 0,0 C 23.026,48.705 49.539,86.509 77.359,86.029 126.744,85.178 86.441,4.288 31.664,-6.212 22.302,-8.008 13.471,-8.429 4.831,-8.11 0.789,-7.96 -1.729,-3.657 0,0 m -26.591,-371.84 c 26.109,68.941 47.062,224.568 111.93,216.949 59.57,-6.997 -81.489,-246.684 36.58,-254.631 0,0 20.719,-5.677 53.642,21.003 17.8,14.423 28.038,27.837 33.696,37.127 1.413,2.322 0.886,5.288 -1.186,7.048 -1.239,1.051 -2.434,2.175 -3.594,3.355 -5.457,5.553 -14.318,5.813 -19.876,0.361 -13.932,-13.667 -33.837,-27.306 -40.97,-4.325 -7.283,23.469 26.299,117.75 31.842,187.555 0,0 0,0.001 -0.001,0.001 3.205,40.359 -2.936,72.562 -31.841,78.101 -20.588,3.944 -40.343,-2.754 -58.535,-15.517 -44.63,-31.314 -79.789,-99.335 -94.317,-137.744 -29.385,-77.69 -33.456,-97.483 -44.728,-99.844 -1.255,-0.263 -2.596,-0.319 -4.074,-0.206 -6.45,0.496 -10.616,10.803 -12.623,27.284 -5.065,41.605 3.665,122.644 24.401,185.156 9.587,28.904 20.966,61.369 33.69,91.84 0.954,2.285 3.298,3.643 5.765,3.43 6.726,-0.58 13.236,-0.812 19.57,-0.787 81.996,0.314 130.702,49.357 135.534,98.799 5.535,56.623 -66.839,80.963 -124.313,7.312 C 6.812,58.399 -6.696,34.536 -19.441,9.624 c -1.827,-3.573 -3.64,-7.167 -5.444,-10.78 -1.076,-2.154 -3.39,-3.376 -5.781,-3.093 -31.415,3.727 -76.88,2.055 -115.342,-18.141 -4.682,-2.459 -8.999,-4.972 -13.126,-7.51 -80.697,-49.611 -57.772,-112.553 -17.811,-118.224 16.482,-2.337 29.034,0.015 38.253,3.718 v 0.001 c 29.589,13.874 46.275,27.14 57.842,36.949 0.025,0.021 0.05,0.043 0.076,0.065 4.517,3.833 7.793,8.914 9.618,14.549 6.372,19.683 13.251,38.313 20.685,56.065 0.476,1.137 -0.865,2.137 -1.808,1.342 -11.067,-9.329 -26.285,-20.847 -44.228,-30.942 -29.544,-16.621 -43.083,-22.414 -54.279,-25.925 -11.79,-3.697 -23.466,-4.491 -30.842,2.362 -8.117,7.542 1.647,25.381 24.36,41.165 24.836,17.257 65.161,32.055 114.69,28.216 3.916,-0.304 6.344,-4.366 4.756,-7.959 -21.24,-48.046 -36.942,-100.236 -49.151,-155.65 -5.234,-23.752 -8.22,-48.765 -9.223,-73.075 -3.237,-78.523 14.477,-149.638 46.12,-146.603 8.873,0.851 16.37,13.22 23.484,32.006" /></g></g></g></g></svg>